<svg xmlns="http://www.w3.org/2000/svg" viewBox="0 0 172.34 73.83"><g fill="#fff"><path data-name="Path 39" d="M54.721 67.37l1.265-.115a2.962 2.962 0 00.418 1.293 2.292 2.292 0 001.02.817 3.735 3.735 0 001.556.312 3.612 3.612 0 001.355-.236 1.884 1.884 0 00.874-.648 1.544 1.544 0 00.287-.9 1.4 1.4 0 00-.277-.863 2.052 2.052 0 00-.912-.62 17.649 17.649 0 00-1.805-.512 9.007 9.007 0 01-1.956-.655 2.773 2.773 0 01-1.082-.977 2.461 2.461 0 01-.357-1.307 2.727 2.727 0 011.708-2.536 4.671 4.671 0 011.86-.358 4.916 4.916 0 011.988.376 2.887 2.887 0 011.324 1.106 3.246 3.246 0 01.5 1.654l-1.285.1a2.177 2.177 0 00-.7-1.5 2.66 2.66 0 00-1.767-.508 2.759 2.759 0 00-1.773.461 1.4 1.4 0 00-.557 1.114 1.217 1.217 0 00.394.931 5.224 5.224 0 002.022.748 13.028 13.028 0 012.243.67 3.084 3.084 0 011.307 1.071 2.672 2.672 0 01.422 1.493 2.928 2.928 0 01-.463 1.579A3.082 3.082 0 0161 70.51a4.489 4.489 0 01-1.954.412 5.645 5.645 0 01-2.3-.415 3.264 3.264 0 01-1.46-1.249 3.631 3.631 0 01-.565-1.888z"/><path data-name="Path 40" d="M64.463 70.743v-10.5h1.245v3.767a2.74 2.74 0 012.2-1.045 2.88 2.88 0 011.417.333 1.925 1.925 0 01.861.92 4.388 4.388 0 01.259 1.7v4.82H69.2v-4.82a2.04 2.04 0 00-.4-1.407 1.477 1.477 0 00-1.144-.44 1.967 1.967 0 00-1.04.3 1.668 1.668 0 00-.7.806 3.838 3.838 0 00-.206 1.4v4.161z"/><path data-name="Path 41" d="M74.425 70.915a2.626 2.626 0 01-1.86-.612 2.066 2.066 0 01-.649-1.565 2.148 2.148 0 01.246-1.021 2.081 2.081 0 01.643-.742 2.993 2.993 0 01.895-.422 8.39 8.39 0 011.107-.193 10.926 10.926 0 002.218-.445c0-.158.008-.284.008-.337a1.461 1.461 0 00-.354-1.11 2.043 2.043 0 00-1.417-.437 2.151 2.151 0 00-1.3.319 1.97 1.97 0 00-.618 1.128l-1.217-.172a3.2 3.2 0 01.545-1.307 2.4 2.4 0 011.1-.766 4.744 4.744 0 011.666-.269 4.29 4.29 0 011.528.23 2.014 2.014 0 01.864.577 2.07 2.07 0 01.388.877 7.7 7.7 0 01.061 1.188v1.719a19.169 19.169 0 00.079 2.274 2.949 2.949 0 00.316.914h-1.3a2.8 2.8 0 01-.248-.939 4.668 4.668 0 01-1.331.859 3.726 3.726 0 01-1.37.252zm2.6-3.99a8.829 8.829 0 01-2.032.487 4.6 4.6 0 00-1.085.258 1.109 1.109 0 00-.491.419 1.146 1.146 0 00-.173.613 1.119 1.119 0 00.378.859 1.589 1.589 0 001.1.344 2.5 2.5 0 001.279-.327 1.989 1.989 0 00.823-.891 3.241 3.241 0 00.2-1.289v-.468z"/><path data-name="Path 42" d="M81.457 73.659h-1.244V63.138h1.133v.988a2.842 2.842 0 01.906-.87 2.43 2.43 0 011.224-.29 2.84 2.84 0 011.659.5 3.074 3.074 0 011.085 1.414 5.362 5.362 0 01.366 2 5.266 5.266 0 01-.4 2.1 3.151 3.151 0 01-1.176 1.433 2.949 2.949 0 01-1.621.5 2.292 2.292 0 01-1.117-.272 2.625 2.625 0 01-.812-.688v3.7zm1.9-9.683a1.785 1.785 0 00-1.408.77 3.553 3.553 0 00-.612 2.238 3.411 3.411 0 00.573 2.17 1.748 1.748 0 001.391.7 1.785 1.785 0 001.421-.727 3.553 3.553 0 00.59-2.252 3.472 3.472 0 00-.577-2.178 1.724 1.724 0 00-1.376-.722z"/><path data-name="Path 43" d="M88.09 70.75v-7.61h1.24v7.609zm0-9.03v-1.48h1.24v1.481z"/><path data-name="Path 44" d="M91.233 70.743v-7.606h1.12v1.082a2.615 2.615 0 012.337-1.253 2.967 2.967 0 011.22.247 1.926 1.926 0 01.833.648 2.53 2.53 0 01.387.952 7.542 7.542 0 01.07 1.253v4.677h-1.245v-4.626a3.608 3.608 0 00-.145-1.178 1.23 1.23 0 00-.515-.624 1.6 1.6 0 00-.867-.233 1.975 1.975 0 00-1.372.523 2.637 2.637 0 00-.577 1.984v4.154z"/><path data-name="Path 45" d="M101.783 73.83a3.438 3.438 0 01-2.122-.612 2.108 2.108 0 01-.781-1.844l1.21.186a1.214 1.214 0 00.422.846 2.03 2.03 0 001.264.357 2.175 2.175 0 001.334-.357 1.778 1.778 0 00.637-1 8.457 8.457 0 00.089-1.654 2.534 2.534 0 01-2.031 1 2.752 2.752 0 01-2.345-1.131 4.5 4.5 0 01-.828-2.714 5.233 5.233 0 01.379-2.01 3.157 3.157 0 011.1-1.421 2.913 2.913 0 011.7-.5 2.609 2.609 0 012.142 1.088v-.916h1.147v6.575a6.5 6.5 0 01-.348 2.517 2.617 2.617 0 01-1.107 1.171 3.74 3.74 0 01-1.862.419zm.118-9.8a1.785 1.785 0 00-1.411.7 3.2 3.2 0 00-.581 2.074 3.4 3.4 0 00.573 2.184 1.851 1.851 0 002.876 0 3.282 3.282 0 00.581-2.145 3.214 3.214 0 00-.6-2.106 1.832 1.832 0 00-1.439-.707z"/><path data-name="Path 46" d="M113.4 70.743v-9.261h-3.34v-1.239h8.033v1.239h-3.353v9.261z"/><path data-name="Path 47" d="M120.719 70.915a3.254 3.254 0 01-2.492-1.025 4.2 4.2 0 01-.95-2.949 4.013 4.013 0 011.134-3.13 3.357 3.357 0 012.309-.845 3.255 3.255 0 012.476 1.028 4.011 4.011 0 01.96 2.84 5.223 5.223 0 01-.424 2.309 3.1 3.1 0 01-1.238 1.308 3.521 3.521 0 01-1.775.464zm0-6.882a1.954 1.954 0 00-1.549.724 4.193 4.193 0 000 4.371 2 2 0 003.091 0 3.413 3.413 0 00.616-2.227 3.234 3.234 0 00-.618-2.137 1.947 1.947 0 00-1.54-.734z"/><path data-name="Path 48" d="M125.614 70.743v-7.606h1.113v1.067a2.651 2.651 0 01.919-.9 2.516 2.516 0 011.307-.34 2.359 2.359 0 011.338.35 1.877 1.877 0 01.737.982 2.615 2.615 0 012.267-1.332 2.192 2.192 0 011.68.626 2.743 2.743 0 01.588 1.931v5.221h-1.238V65.95a3.633 3.633 0 00-.122-1.113 1.067 1.067 0 00-.438-.548 1.335 1.335 0 00-.747-.208 1.71 1.71 0 00-1.286.534 2.4 2.4 0 00-.511 1.709v4.419h-1.245v-4.942a2.23 2.23 0 00-.3-1.289 1.136 1.136 0 00-1-.43 1.763 1.763 0 00-.971.287 1.613 1.613 0 00-.647.838 4.876 4.876 0 00-.2 1.59v3.946z"/><path data-name="Path 49" d="M140.389 70.915a3.254 3.254 0 01-2.492-1.025 4.2 4.2 0 01-.95-2.949 4.013 4.013 0 011.134-3.13 3.357 3.357 0 012.309-.845 3.255 3.255 0 012.476 1.028 4.01 4.01 0 01.962 2.84 5.218 5.218 0 01-.426 2.309 3.1 3.1 0 01-1.238 1.308 3.522 3.522 0 01-1.775.464zm0-6.882a1.951 1.951 0 00-1.548.724 4.188 4.188 0 000 4.371 2 2 0 003.09 0 3.412 3.412 0 00.617-2.227 3.234 3.234 0 00-.619-2.137 1.947 1.947 0 00-1.54-.734z"/><path data-name="Path 50" d="M145.27 70.743v-7.606h1.119v1.153a3.11 3.11 0 01.793-1.067 1.34 1.34 0 01.8-.258 2.363 2.363 0 011.278.415l-.429 1.2a1.733 1.733 0 00-.912-.279 1.163 1.163 0 00-.732.254 1.374 1.374 0 00-.463.706 5.184 5.184 0 00-.208 1.5v3.982z"/><path data-name="Path 51" d="M149.985 70.743v-7.606h1.12v1.153a3.113 3.113 0 01.792-1.067 1.344 1.344 0 01.8-.258 2.369 2.369 0 011.279.415l-.429 1.2a1.731 1.731 0 00-.912-.279 1.164 1.164 0 00-.733.254 1.387 1.387 0 00-.463.706 5.22 5.22 0 00-.207 1.5v3.982z"/><path data-name="Path 52" d="M157.693 70.915a3.253 3.253 0 01-2.491-1.025 4.194 4.194 0 01-.951-2.949 4.013 4.013 0 011.134-3.13 3.357 3.357 0 012.309-.845 3.255 3.255 0 012.476 1.028 4.011 4.011 0 01.961 2.84 5.22 5.22 0 01-.425 2.309 3.1 3.1 0 01-1.238 1.308 3.522 3.522 0 01-1.775.464zm0-6.882a1.951 1.951 0 00-1.548.724 4.188 4.188 0 000 4.371 2 2 0 003.09 0 3.408 3.408 0 00.617-2.227 3.23 3.23 0 00-.619-2.137 1.947 1.947 0 00-1.54-.734z"/><path data-name="Path 53" d="M163.944 70.743l-2.247-7.606h1.286l1.168 4.39.436 1.633c.017-.081.145-.6.38-1.568l1.168-4.455h1.28l1.1 4.412.368 1.454.422-1.469 1.258-4.4h1.21l-2.3 7.606h-1.293l-1.17-4.555-.282-1.3-1.487 5.851z"/><path data-name="Path 23" d="M62.537 40.718v2.012a.94.94 0 001.04 1.033.92.92 0 001.009-1.033c0-1.55-.734-2.764-1.926-4.5-1.193-1.6-2.813-3.979-2.813-5.968a3.686 3.686 0 014.067-3.875 3.329 3.329 0 013.577 3.592v1.885h-2.722V31.73a.81.81 0 00-.855-.878.853.853 0 00-.948.878c0 1.989.7 2.687 1.986 4.6 1.346 1.937 2.691 3.978 2.691 5.993a3.608 3.608 0 01-3.914 3.8c-2.446 0-3.945-1.292-3.945-3.592v-1.809z"/><path data-name="Path 24" d="M73.515 31.263v14.6h-3.149v-14.6h-2.294v-2.609h7.736v2.609z"/><path data-name="Path 25" d="M80.366 46.119a4.24 4.24 0 01-2.822-.975 3.316 3.316 0 01-1.124-2.564V31.93a3.357 3.357 0 011.124-2.554 4.227 4.227 0 012.822-.985 3.975 3.975 0 012.767.965 3.3 3.3 0 011.025 2.5v6.149h-4.526v4.676c0 .421.091.852.765.852s.764-.431.764-.852v-3.126h3v3.1a3.307 3.307 0 01-1.025 2.507 3.987 3.987 0 01-2.77.957zm.031-15.14c-.522 0-.765.271-.765.852v3.875h1.529V31.83c0-.58-.243-.851-.761-.851z"/><path data-name="Path 26" d="M89.449 46.119a4.24 4.24 0 01-2.822-.975 3.316 3.316 0 01-1.124-2.564V31.93a3.357 3.357 0 011.124-2.554 4.227 4.227 0 012.822-.985 3.974 3.974 0 012.766.965 3.3 3.3 0 011.024 2.5v6.149h-4.525v4.676c0 .421.091.852.764.852s.765-.431.765-.852v-3.126h3v3.1c-.003 2.104-1.491 3.464-3.794 3.464zm.03-15.14c-.521 0-.764.271-.764.852v3.875h1.529V31.83c0-.58-.244-.851-.765-.851z"/><path data-name="Path 27" d="M101.13 45.859h-6.452V28.654h3.18V43.38h3.272z"/><path data-name="Path 28" d="M104.4 40.718v2.012a.94.94 0 001.04 1.033.92.92 0 001.009-1.033c0-1.55-.734-2.764-1.927-4.5-1.192-1.6-2.812-3.979-2.812-5.968a3.686 3.686 0 014.067-3.875 3.329 3.329 0 013.577 3.592v1.885h-2.722V31.73a.81.81 0 00-.855-.878.854.854 0 00-.949.878c0 1.989.7 2.687 1.987 4.6 1.346 1.937 2.691 3.978 2.691 5.993a3.608 3.608 0 01-3.914 3.8c-2.447 0-3.945-1.292-3.945-3.592v-1.809z"/><path data-name="Path 29" d="M117.062 45.859h-5.535V28.654h3.18V43.38h2.355z"/><path data-name="Path 30" d="M118.07 28.65h3.18v17.21h-3.18z"/><path data-name="Path 31" d="M132.9 28.395a2.52 2.52 0 012.691 2.764v14.7h-3.15V31.65a.511.511 0 00-.58-.568 1.513 1.513 0 00-1.1.7v14.079h-3.15V31.65a.511.511 0 00-.581-.568 1.469 1.469 0 00-1.071.7v14.079h-3.18V28.654h3.027v.7a3.363 3.363 0 012.263-.956 2.488 2.488 0 012.294 1.189 3.5 3.5 0 012.537-1.192z"/><path data-name="Path 32" d="M137.06 28.65h3.18v17.21h-3.18z"/><path data-name="Path 33" d="M146.543 31.263v14.6h-3.149v-14.6H141.1v-2.609h7.736v2.609z"/><path data-name="Path 34" d="M153.394 46.119a4.24 4.24 0 01-2.822-.975 3.316 3.316 0 01-1.124-2.564V31.93a3.357 3.357 0 011.124-2.554 4.227 4.227 0 012.822-.985 3.975 3.975 0 012.767.965 3.3 3.3 0 011.025 2.5v6.149h-4.526v4.676c0 .421.091.852.765.852s.764-.431.764-.852v-3.126h3v3.1a3.307 3.307 0 01-1.025 2.507 3.987 3.987 0 01-2.77.957zm.031-15.14c-.522 0-.765.271-.765.852v3.875h1.529V31.83c0-.58-.243-.851-.765-.851z"/><path data-name="Path 35" d="M162.812 45.859h-4.189V28.654h4.189a4.109 4.109 0 012.573.778 3.1 3.1 0 011.128 2.58v10.593c-.001 2.937-2.589 3.254-3.701 3.254zM161.8 31.13v12.272h.734c.555 0 .825-.3.825-.9v-10.49c0-.591-.27-.878-.825-.878z"/><path data-name="Path 10" d="M60.27 8.37h3.18v17.21h-3.18z"/><path data-name="Path 11" d="M69.816 25.577V11.368a.511.511 0 00-.581-.569 1.472 1.472 0 00-1.071.7v14.078h-3.179V8.372h3.026v.7a3.364 3.364 0 012.263-.956 2.52 2.52 0 012.692 2.764v14.7z"/><path data-name="Path 12" d="M79.2 10.981v14.6h-3.149v-14.6H73.76V8.372h7.74v2.609z"/><path data-name="Path 13" d="M86.054 25.837a4.239 4.239 0 01-2.822-.976 3.317 3.317 0 01-1.124-2.565V11.653a3.359 3.359 0 011.124-2.555 4.227 4.227 0 012.822-.985 3.975 3.975 0 012.767.966 3.3 3.3 0 011.025 2.5v6.15H85.32V22.4c0 .422.091.853.765.853s.764-.431.764-.853v-3.126h3v3.1a3.307 3.307 0 01-1.025 2.507 3.986 3.986 0 01-2.77.956zm.031-15.141c-.522 0-.765.271-.765.853v3.874h1.529V11.55c0-.582-.243-.854-.764-.854z"/><path data-name="Path 14" d="M94.464 25.579h-3.18V8.372h4.281c1.6 0 3.3.794 3.3 3.022v3.928a1.994 1.994 0 01-1.07 1.937 2.081 2.081 0 011.161 1.965v3.488a11.363 11.363 0 00.4 2.865H96.33a6.438 6.438 0 01-.428-2.661v-3.745c0-.55-.2-.775-.7-.775h-.734v7.182zm0-14.78v5.323h.765c.424 0 .581-.2.581-.748V11.55c0-.519-.189-.751-.612-.751h-.734z"/><path data-name="Path 15" d="M105.167 25.577V11.368a.511.511 0 00-.581-.569 1.468 1.468 0 00-1.071.7v14.078h-3.18V8.372h3.027v.7a3.363 3.363 0 012.263-.956 2.52 2.52 0 012.69 2.764v14.7z"/><path data-name="Path 16" d="M112.934 25.837a3.451 3.451 0 01-2.445-.863 3.583 3.583 0 01-.978-2.7v-1.759a5.094 5.094 0 011.272-3.475 10.924 10.924 0 013.5-2.467v-3.075c0-.481-.13-.8-.764-.8-.678 0-.765.429-.765.8v2.5h-3v-2.423a3.3 3.3 0 011.024-2.5 3.973 3.973 0 012.767-.966 4.174 4.174 0 012.806.985 3.374 3.374 0 011.109 2.555v11.553a5.777 5.777 0 00.4 2.376h-2.66a2.231 2.231 0 01-.214-.671 2.514 2.514 0 01-2.052.93zm1.346-8.424a2.937 2.937 0 00-1.559 2.585v2.326c0 .607.226.878.734.878.464 0 .757-.56.824-1.577v-4.212z"/><path data-name="Path 17" d="M123.455 10.981v14.6H120.3v-14.6h-2.294V8.372h7.737v2.609z"/><path data-name="Path 18" d="M126.6 8.37h3.18v17.21h-3.18z"/><path data-name="Path 19" d="M135.2 25.837a4.343 4.343 0 01-2.814-.957 3.232 3.232 0 01-1.162-2.507v-10.8a3.23 3.23 0 011.162-2.506 4.62 4.62 0 015.627 0 3.23 3.23 0 011.162 2.506v10.8a3.233 3.233 0 01-1.162 2.507 4.34 4.34 0 01-2.813.957zm0-15.141a.68.68 0 00-.765.7v11.159a.768.768 0 001.529 0V11.394a.68.68 0 00-.764-.698z"/><path data-name="Path 20" d="M145.442 25.577V11.368a.511.511 0 00-.581-.569 1.472 1.472 0 00-1.071.7v14.078h-3.179V8.372h3.026v.7a3.363 3.363 0 012.263-.956 2.52 2.52 0 012.691 2.764v14.7z"/><path data-name="Path 21" d="M153.209 25.837a3.452 3.452 0 01-2.446-.863 3.582 3.582 0 01-.979-2.7v-1.759a5.093 5.093 0 011.273-3.475 10.929 10.929 0 013.5-2.467v-3.075c0-.481-.13-.8-.765-.8-.677 0-.764.429-.764.8v2.5h-3v-2.423a3.3 3.3 0 011.024-2.5 3.975 3.975 0 012.767-.966 4.172 4.172 0 012.805.985 3.375 3.375 0 011.108 2.555v11.553a5.848 5.848 0 00.4 2.376h-2.66a2.234 2.234 0 01-.215-.671 2.513 2.513 0 01-2.048.93zm1.346-8.424A2.938 2.938 0 00153 19.998v2.326c0 .607.227.878.734.878.593 0 .777-.857.826-1.577z"/><path data-name="Path 22" d="M165.716 25.577h-6.452V8.372h3.18v14.726h3.272z"/><path d="M172.34 53.17H55.16V0h117.18v53.17zM56.99 1.84v49.5h113.52V1.84z"/><path data-name="Outline" d="M53.17 53.171H0V0h53.17v53.17zM1.83 1.84v49.5h49.5V1.84z"/><path d="M39.528 36.367h-7.236V18.052h3.566V33.73h3.671zM25.33 30.895v2.145a1.029 1.029 0 001.166 1.1 1.006 1.006 0 001.132-1.1c0-1.65-.824-2.942-2.162-4.785-1.337-1.705-3.155-4.235-3.155-6.352 0-2.283 1.475-4.125 4.562-4.125 2.4 0 4.013 1.4 4.013 3.822v2.007h-3.053V21.33a.887.887 0 00-.961-.936.939.939 0 00-1.063.936c0 2.117.79 2.86 2.23 4.895 1.508 2.063 3.018 4.234 3.018 6.38 0 2.859-2.162 4.042-4.39 4.042-2.744 0-4.424-1.375-4.424-3.822v-1.93zM17.51 18.05h3.57v18.31h-3.57z"/><path d="M29.86 48.751a2.126 2.126 0 00.126-.72 2.149 2.149 0 10-4.174.715 21.385 21.385 0 01-3.7-.7 2.148 2.148 0 10-3.812-1.474 21.533 21.533 0 01-3.358-2.1 2.149 2.149 0 10-2.976-2.744 21.457 21.457 0 01-2.823-3.975h.005a2.148 2.148 0 10-1.576-3.608 21.349 21.349 0 01-.963-4.495 2.15 2.15 0 10-.024-4.1 21.366 21.366 0 011.051-4.991 2.148 2.148 0 101.65-3.67 21.452 21.452 0 012.66-3.7 2.148 2.148 0 102.934-2.719 21.5 21.5 0 013.685-2.28 2.148 2.148 0 103.829-1.419 21.337 21.337 0 013.388-.612 2.174 2.174 0 00-.089.612 2.15 2.15 0 104.3 0 2.117 2.117 0 00-.092-.62 21.42 21.42 0 013.407.6 2.149 2.149 0 103.814 1.4 21.419 21.419 0 013.743 2.3 2.149 2.149 0 102.9 2.668 21.431 21.431 0 012.728 3.779 2.148 2.148 0 101.625 3.6 21.254 21.254 0 011.081 5.108 2.13 2.13 0 00-.764-.143 2.15 2.15 0 100 4.3 2.131 2.131 0 00.741-.134 21.354 21.354 0 01-.995 4.613 2.149 2.149 0 10-1.646 3.53h.107a21.451 21.451 0 01-2.9 4.06 2.148 2.148 0 00-4.157.76 2.134 2.134 0 001.213 1.934 21.464 21.464 0 01-3.683 2.249v-.061a2.149 2.149 0 10-3.745 1.436 21.389 21.389 0 01-3.512.618zM27.89 11.99a15.46 15.46 0 1010.932 4.528A15.359 15.359 0 0027.89 11.99z"/></g></svg>